<svg width="32" height="29" viewBox="0 0 32 29" fill="none" xmlns="http://www.w3.org/2000/svg">
<path d="M0 28.9999L12.2247 6.87646L17.703 15.8404C17.7144 15.8591 17.7151 15.8829 17.7048 15.9022L15.9489 19.2038C15.9269 19.2451 15.8699 19.2455 15.8474 19.2045L12.636 13.3453C12.6134 13.3042 12.5562 13.3047 12.5343 13.3464C12.5343 13.3464 10.6348 16.9738 9.41772 19.2981C9.41772 19.2981 9.63158 19.2981 9.67418 19.2981C9.79279 19.2981 9.9154 19.2981 10.0402 19.2981C11.2125 19.2981 12.5737 19.2981 12.5737 19.2981C12.5947 19.2981 12.614 19.3098 12.6243 19.3287L14.2622 22.3265C14.2723 22.345 14.2723 22.3676 14.2623 22.3861L12.759 25.1635C12.7369 25.2045 12.6804 25.2047 12.6579 25.164C12.6579 25.164 12.6579 25.164 10.0402 19.2981C9.99792 19.2981 9.41772 19.2981 9.41772 19.2981C7.291 23.0752 3.97191 28.97 3.97191 28.97C3.96147 28.9885 3.94237 28.9999 3.92171 28.9999H0Z" fill="#FF9900"/>
<path d="M19.3994 19.2811L14.0731 28.9092C14.0508 28.9496 14.0787 29 14.1235 29H32.0004L15.8207 0L14.0381 3.47222C14.0287 3.49064 14.029 3.51282 14.039 3.53092L26.1975 25.5345C26.2198 25.5749 26.1918 25.6252 26.1471 25.6252H19.5127C19.4689 25.6252 19.4408 25.5767 19.4613 25.5364L22.6521 19.2507H19.4498C19.429 19.2507 19.4098 19.2622 19.3994 19.2811Z" fill="#FF9900"/>
</svg>
